<svg xmlns="http://www.w3.org/2000/svg" viewBox="0 0 100 100">
  <defs>
    <linearGradient id="grad_logo_chat" x1="0%" y1="0%" x2="100%" y2="100%">
      <stop offset="0%" style="stop-color:hsl(180, 100%, 25%);stop-opacity:1" />
      <stop offset="100%" style="stop-color:hsl(180, 90%, 90%);stop-opacity:1" />
    </linearGradient>
  </defs>
  <path fill="url(#grad_logo_chat)" d="M50,5 C74.85,5 95,25.15 95,50 C95,74.85 74.85,95 50,95 C25.15,95 5,74.85 5,50 C5,25.15 25.15,5 50,5 Z M50,15 C30.67,15 15,30.67 15,50 C15,69.33 30.67,85 50,85 C69.33,85 85,69.33 85,50 C85,30.67 69.33,15 50,15 Z M50,30 Q60,40 50,50 Q40,60 50,70 M50,30 Q70,50 50,70 M50,30 L50,70" stroke="hsl(0, 0%, 100%)" strokeWidth="3" strokeLinecap="round" strokeLinejoin="round"/>
</svg>
